<svg width="95" height="37" viewBox="0 0 95 37" fill="none" xmlns="http://www.w3.org/2000/svg">
<path d="M61.8798 0L62.6585 0.0500236L63.2814 0.250118L64.0082 0.650307L64.735 1.20057L65.3579 1.75083L69.0956 5.35253L69.7186 6.15291L70.1858 6.90326L70.3415 7.2034V7.35348H70.4454L70.4973 6.95329L70.9126 5.5026L71.3798 3.75177L71.6913 3.15149L72.2623 2.55121L72.5738 2.35111L73.4044 2.10099L75.7924 1.55073L79.2705 0.900426L82.3852 0.450213L84.929 0.200095L85.7596 0.150071H87.1093L87.9399 0.300142L88.6148 0.55026L89.1339 0.850402L89.7568 1.40066L90.6913 2.30109L91.1066 2.65125L93.0273 4.50213L93.5984 5.20246L94.0656 6.05286L94.4809 7.10336L94.7924 8.15385L95 9.45447V10.0548L94.8443 10.8551L94.6366 11.3554L94.3251 11.8056L93.9617 12.1557L93.235 12.5559L92.3525 12.8061L91.2104 12.9561L87.8361 13.3063L85.8115 13.5564L88.7186 16.3577L89.082 16.858L89.6011 17.7584L89.9645 18.6588L90.3279 20.0095L90.5355 21.0099V22.0104L90.3279 22.6107L90.0164 23.1109L89.5492 23.6112L88.9781 23.9613L88.3033 24.2615L87.3689 24.5116L86.0191 24.7117L86.5902 25.312L86.9536 25.6121L87.3169 26.0123L87.7842 26.6626L88.4071 27.9132L88.8743 29.1138L89.1339 30.1643L89.2377 31.2148L89.1339 32.0652L88.9262 32.6154L88.6667 33.0156L88.3033 33.4158L87.7322 33.766L86.6421 34.1161L77.8169 35.967L76.571 36.1671L75.8443 36.2171L74.9098 36.1171L74.1311 35.917L73.2486 35.5168L72.5219 35.0165L71.276 33.916L69.0437 31.765L68.6803 31.3648L67.9016 30.6145L67.5383 30.2143L67.0191 29.664L66.5 29.0137L66.0328 28.2634L65.7732 27.6631L65.6175 27.0128L65.5656 26.6126V25.5121L65.7213 24.6116L66.9153 20.2096L68.0055 16.1076L68.4208 14.6069L68.3689 14.5569L67.6421 15.4073L67.0191 16.1076L66.4481 16.7579L65.877 17.3582L65.5137 17.7584L64.8907 18.4087L64.1639 19.1591L63.5929 19.7093L63.2295 20.1095L59.8552 23.361L59.9071 23.6112L60.6339 24.8617L61.2568 25.8622L62.1393 27.2629L63.1257 28.8636L63.6448 29.714L64.112 30.5144L64.4754 31.3148L64.6311 31.8651V32.4153L64.4754 33.0656L64.1639 33.6159L63.8005 34.0161L63.1257 34.5163L62.0355 35.0666L60.7377 35.5168L59.388 35.8169L58.4536 35.917H57.9344L57.1038 35.7669L56.2732 35.4668L55.4945 35.0165L54.8197 34.4663L54.041 33.766L51.7568 31.5649L51.1858 33.6159L50.9262 34.6164L50.6148 35.2166L50.1475 35.7169L49.5765 36.067L49.0055 36.2671L48.4863 36.3672H47.7596L46.877 36.2171L45.3716 35.7669L43.8661 35.2166L42.9836 34.7664L42.3607 34.3162L41.6858 33.7159L39.6612 31.765L39.2978 31.3648L38.3634 30.4644L37.8962 29.7641L37.6366 29.0637L37.4809 28.2634L37.429 27.8131L36.3388 31.815L35.7158 34.0661L35.3525 34.9165L34.8852 35.5668L34.3661 35.967L33.9508 36.1671L33.5355 36.2671L33.0683 36.3172H32.6011L31.6667 36.1671L29.9536 35.6168L28.7077 35.1166L27.9809 34.7164L27.5137 34.3662L26.8907 33.816L23.5683 30.6145L23.3607 30.3644V31.815L23.153 32.4653L22.8415 32.9656L22.4781 33.3157L21.959 33.6159L21.2322 33.916L19.9344 34.2662L17.2869 34.8165L13.5492 35.5668L11.9399 35.967L10.9016 36.1671H9.55191L8.72131 36.017L7.89071 35.6168L7.0082 35.0165L6.22951 34.3162L5.81421 33.9661L3.06284 31.3148V31.2148H2.95902L2.59563 30.8146L2.0765 30.3143L1.71311 29.9141L1.14208 29.3139L0.674863 28.6635L0.259563 27.8632L0.103825 27.413L0 26.8627V25.7622L0.363388 23.9113L0.986339 21.21L1.97268 17.4583L2.75137 14.707L3.68579 11.5555L4.46448 9.05428L5.39891 6.20293L6.12568 4.15196L6.74863 2.45116L7.16393 1.65078L7.68306 1.00047L8.20219 0.55026L8.92896 0.200095L9.70765 0.0500236H10.5383L11.5765 0.250118L12.6148 0.55026L13.7049 1.00047L14.847 1.60076L15.5738 2.10099L16.1448 2.55121L16.7678 3.10147L20.194 6.40303L20.6093 6.95329L21.0246 7.75366L21.1803 8.454L21.1284 9.15433L20.8169 10.1548L19.7787 12.9061L18.7923 15.6574L18.0137 17.9085L17.3388 19.9594L16.8197 21.6102L16.7678 21.7603L17.3907 22.1605L17.9098 22.6107L21.4918 26.0623L21.959 26.7126L22.4262 27.563L22.8934 25.1119L23.3087 23.0109L24.2432 19.009L25.9044 12.606L26.7869 9.3044L27.2022 7.85371L27.7213 6.00284L28.5 3.45163L28.8115 2.65125L29.1749 1.95092L29.5902 1.45069L29.9536 1.10052L30.5246 0.750355L30.9918 0.600284L31.3552 0.55026H32.5492L33.4317 0.750355L34.7295 1.20057L36.0792 1.80085L37.2732 2.50118L37.8962 2.95139L38.623 3.55168L41.9454 6.75319L42.4645 7.4035L42.5164 7.50355L42.9317 6.25296L43.7623 3.55168L44.1776 2.40113L44.5929 1.60076L45.0082 1.10052L45.4235 0.700331L46.1503 0.300142L46.7213 0.150071L47.0847 0.100047H47.8634L48.7459 0.250118L50.7186 0.900426L52.0164 1.50071L53.0027 2.10099L53.6776 2.60123L54.4563 3.30156L56.0656 4.85229L56.2213 4.90232L56.3251 4.70222L57.0519 4.00189L57.4153 3.6017L57.8306 3.20151L58.194 2.80132L58.6612 2.30109L59.3361 1.55073L59.8033 1.0505L60.0628 0.800378L60.4262 0.500236L61.2568 0.100047L61.8798 0Z" fill="#010000"/>
<path d="M61.8803 0.650269L62.5032 0.700292L63.0743 0.900387L63.8011 1.3506L64.4759 1.90086L64.8393 2.25103L65.4103 2.95136L65.7737 3.50162L66.189 4.30199L66.4486 5.05235L66.5524 5.65263V6.25292L66.3967 7.00327L66.0333 7.95372L65.618 8.70408L64.7874 9.85462L64.0606 10.755L63.6453 11.2553L63.0743 11.9056L62.6071 12.4558L61.9841 13.1062L61.6207 13.5063L61.0497 14.1066L60.3229 14.857L59.5442 15.6574L58.1426 17.008L58.0907 17.108H57.9868L57.883 17.3081L57.0524 18.1085H56.9486V18.2086H56.8448V18.3086H56.7409V18.4087H56.6371V18.5087H56.5333L56.4295 18.7088H56.3256V18.8089L55.9103 19.159L55.3393 19.7093L55.3912 19.9594L56.0661 21.16L56.7929 22.3605L57.7792 23.9613L59.0251 25.9622L59.7519 27.1628L60.1672 28.0132L60.271 28.4134V28.8636L60.0634 29.5139L59.7519 29.9141L59.2847 30.3143L58.5579 30.7145L57.6235 31.1147L56.2737 31.5149L55.0797 31.715H54.1972L53.3666 31.5149L52.536 31.1147L51.965 30.7145L51.342 30.1642L50.8229 29.614L50.3038 28.9637L49.6289 28.0632L49.006 27.1128L48.1754 25.8122L48.0196 25.6621L47.812 26.5125L47.1371 28.8636L46.7737 30.2643L46.5661 30.9646L46.3065 31.4148L45.8912 31.815L45.3202 32.0651L44.9049 32.1652H43.9185L42.8803 31.915L41.3748 31.4148L40.1289 30.9146L39.4022 30.4644L38.8311 29.9141L38.4677 29.3638L38.2082 28.5635L38.1562 28.1633V27.513L38.312 26.4124L38.7273 24.3115L39.506 21.0099L40.4923 17.2081L41.3748 13.9065L42.3093 10.605L43.1399 7.80365L44.0224 4.9523L44.6972 2.85131L45.1125 2.05093L45.5278 1.50067L45.9431 1.15051L46.5661 0.850363L46.9814 0.750316H47.7601L48.5907 0.900387L50.4076 1.50067L51.7054 2.10095L52.5879 2.65121L53.1071 3.0514L53.6781 3.55164L54.1453 4.20195L54.353 4.70218L54.4049 4.90228V5.50256L54.1972 6.25292L53.6262 7.80365L53.3666 8.40393V8.60403L54.5606 7.45348L54.924 7.0533L55.9103 6.10285L56.2737 5.70266L56.8967 5.10237L57.2601 4.70218L57.6235 4.35202L57.9868 3.95183L58.3502 3.60166L58.7136 3.20147L59.2847 2.60119L59.7519 2.05093L60.5306 1.25055L61.0497 0.900387L61.5688 0.700292L61.8803 0.650269Z" fill="#FD6098"/>
<path d="M85.9151 0.800293H87.0053L87.8359 0.950364L88.6665 1.35055L89.0818 1.70072L89.4452 2.20096L89.8605 3.00133L90.3277 4.30195L90.5872 5.55254L90.6391 6.00275V6.50299L90.5353 7.10327L90.2758 7.70356L89.9124 8.10375L89.0818 8.50393L88.1473 8.70403L83.7348 9.15424L81.4506 9.45438L81.243 9.50441L80.8796 10.4048L80.1528 12.4058L80.1009 12.5058L81.3987 12.4558H82.385L83.0599 12.5558L83.6829 12.7559L84.3058 13.1061L84.773 13.6063L85.2921 14.5068L85.6036 15.2571L85.9151 16.3576L86.1747 17.5082V18.4086L85.967 18.9589L85.6555 19.3591L85.2402 19.7092L84.4096 20.1094L83.4233 20.3595L81.9178 20.6097L80.3605 20.8598L76.9861 21.5101L76.8304 21.6101L76.467 22.5106L78.1282 22.2604L79.1146 22.1604L80.1528 22.1104H81.0872L81.9178 22.2604L82.7484 22.6606L83.2156 23.0608L83.579 23.6111L84.0982 24.6616L84.5654 25.8621L84.773 26.7125L84.8249 27.0627V28.2133L84.6173 28.8636L84.3058 29.2637L83.8905 29.5639L83.1118 29.864L82.1255 30.1141L78.855 30.7645L76.9861 31.1646L73.3523 31.915L72.5217 32.015H71.6911L70.8605 31.815L70.1337 31.5148L69.5107 31.1146L68.9916 30.6644L68.5763 30.3142L67.6419 29.3138L67.1747 28.7635L66.7594 28.2133L66.4479 27.5629L66.2402 26.7626V25.3619L66.6036 23.8612L67.538 20.4596L68.0572 18.5087L70.7047 8.75405L71.5353 5.70261L72.0544 3.85174L72.314 3.45155L72.6774 3.05136L73.0927 2.85126L74.8058 2.45107L77.9725 1.80077L80.6719 1.35055L82.9042 1.05041L85.0326 0.850317L85.9151 0.800293Z" fill="#FD6098"/>
<path d="M9.65583 0.700317H10.4345L11.317 0.850388L12.1476 1.10051L12.9263 1.40065L13.8088 1.80084L14.6394 2.30107L15.2105 2.70126L15.7296 3.15148L16.093 3.45162L16.4564 3.95185L16.7159 4.45209L16.8198 4.95233L16.7679 5.55261L16.5083 6.35299L15.7296 8.45398L15.0547 10.3049L14.2241 12.656L13.2897 15.4073L12.4072 18.1085L11.6285 20.5597L11.1094 22.2105L11.0056 22.4606L12.7187 22.2105L14.0684 22.1104H15.47L16.1449 22.2605L16.7679 22.5606L17.3389 23.0609L17.858 23.8112L18.4291 24.9618L18.6886 25.7121L18.9482 26.8627L19.0001 27.1628V28.2133L18.8444 28.7136L18.5848 29.1137L18.0657 29.4639L17.3389 29.7641L16.093 30.1142L14.1722 30.5144L11.8881 30.9646L9.44818 31.4649L7.57933 31.9151L6.80064 32.0151H6.17769L5.50283 31.9151L4.87988 31.6649L4.04928 31.1647L3.42633 30.6145L3.01103 30.2643L2.64764 29.8641L2.02469 29.2638L1.6613 28.8636L1.246 28.3134L0.830697 27.513L0.674959 26.8627L0.623047 26.0623L0.934522 24.3615L1.6613 21.26L2.4919 18.0585L3.53015 14.3568L4.51649 11.1052L5.34709 8.45398L6.28152 5.65266L7.06021 3.50164L7.47551 2.45114L7.89081 1.75081L8.35802 1.25058L9.03288 0.850388L9.65583 0.700317Z" fill="#FD6098"/>
<path d="M31.3026 1.20056H32.3928L33.2753 1.40066L34.5212 1.85087L36.0267 2.5512L36.8573 3.05144L37.4802 3.50165L37.9474 3.90184L38.3108 4.4521L38.5185 5.00236L38.5704 5.25248V6.05286L38.3627 6.90326L37.5321 9.35442L36.7015 11.9556L35.9228 14.4568L35.0922 17.2081L34.1059 20.6598L33.3272 23.361L32.4966 26.3124L31.666 29.3639L31.3026 30.5644L30.8873 31.3648L30.5758 31.715L30.1605 31.9651L29.5895 32.1152H28.6551L27.7726 31.8651L25.9556 31.2648L25.125 30.8646L24.5021 30.4644L23.9829 30.0142L23.5676 29.5139L23.2562 28.8636L23.1523 28.5135V27.2629L23.6715 24.5116L24.2944 21.6602L25.2808 17.6083L26.0075 14.807L26.89 11.5054L27.6687 8.60406L28.4474 5.85276L29.2261 3.4016L29.4857 2.80132L29.8491 2.15101L30.3163 1.65077L30.8354 1.35063L31.3026 1.20056Z" fill="#FD6098"/>
<path d="M9.81118 1.50073H10.4341L11.4724 1.70083L12.303 2.00097L13.6008 2.60125L14.7429 3.35161L15.5216 4.05194L15.8849 4.6022L15.9369 4.75227V5.55265L15.4177 6.90329L14.9505 8.15388L14.4314 9.55454L13.497 12.2058L12.7702 14.3568L11.8358 17.2082L11.0571 19.6093L10.486 21.4101L9.915 23.261L9.81118 23.4611L11.2128 23.211L13.1855 22.9609L13.9123 22.9109H15.3139L15.9888 23.0609L16.4041 23.311L16.6636 23.5111L17.027 24.0114L17.65 25.2119L17.9615 26.1624L18.1691 27.2629L18.221 27.9132L18.0653 28.4135L17.65 28.7636H17.5461L17.3904 27.513L17.1308 26.4625L16.7675 25.5121L16.1445 24.4116L15.7811 24.0114L15.3658 23.7613L14.7429 23.6112H12.8221L11.4205 23.7613L9.44779 24.0614H9.18823L9.29205 23.6112L10.1746 20.8599L10.8494 18.7589L11.8877 15.5574L12.7183 13.1062L13.7046 10.2549L14.7429 7.50357L15.2101 6.25298L15.262 6.00286V5.60267L15.1063 5.10243L14.691 4.6022L14.1718 4.10196L13.1336 3.40163L11.9396 2.80135L10.6937 2.35113L9.96691 2.20106H8.82484L8.61719 2.25109L8.82484 1.95095L9.29205 1.6508L9.4997 1.55076L9.81118 1.50073Z" fill="#FEFEFE"/>
<path d="M31.7176 1.95093L32.5482 2.05098L33.7941 2.40114L34.7286 2.80133L36.0264 3.45164L37.0127 4.15197L37.3761 4.50213L37.6876 5.00237L37.7395 5.20246V5.95282L37.5318 6.80322L36.9089 8.60407L36.1302 10.9552L35.04 14.4568L34.2614 17.0581L33.7422 18.9089L32.4444 23.4111L31.6657 26.1624L31.0428 28.4635L30.6275 30.0142L30.3679 30.6645L30.0564 31.0647L29.7969 31.2148L29.9007 30.7645L30.4198 28.8136L31.6138 24.4616L32.4444 21.6102L33.275 18.7088L34.2614 15.3573L35.2477 12.2058L35.9226 10.1048L36.857 7.35348L37.0127 6.7532L37.0646 6.10289L36.9608 5.65268L36.6493 5.15244L36.3898 4.8523L35.5073 4.25202L34.6247 3.75178L33.1712 3.10147L31.9772 2.75131L31.4062 2.65126H30.5756L30.6794 2.45116L31.0947 2.101L31.7176 1.95093Z" fill="#FEFEFE"/>
<path d="M85.7072 1.60083H87.005L87.7318 1.7509L88.2509 2.05104L88.6662 2.50126L89.0815 3.30163L89.4968 4.40215L89.7564 5.5527L89.8083 5.90286V6.4031L89.6525 7.10343L89.4449 7.40357L89.1334 7.60367H89.0296L89.0815 7.20348V6.55317L88.9258 5.65274L88.6143 4.60225L88.199 3.60178L87.8356 3.00149L87.4722 2.65133L87.0569 2.45123L86.4859 2.30116H84.617L83.3711 2.40121L80.8793 2.70135L78.2837 3.10154L74.9613 3.75185L72.9886 4.20206H72.8848L72.9367 4.00196L73.2482 3.6518L74.2345 3.40168L76.311 2.95147L79.6853 2.30116L82.9039 1.85095L84.8247 1.65085L85.7072 1.60083Z" fill="#FEFEFE"/>
<path d="M75.6895 21.4601H75.949L75.7933 21.9603L75.378 23.461L75.949 23.411L77.8698 23.1109L79.4791 22.9608L80.4135 22.9108H80.9845L81.8151 23.0608L82.3862 23.361L82.8015 23.8612L83.3206 24.9117L83.7878 26.1623L83.9955 27.0627L84.0474 27.8131L83.9436 28.3133L83.7878 28.6135L83.4763 28.8636L83.3206 28.9136V28.2133L83.2168 27.3629L82.9053 26.3624L82.49 25.3619L82.0747 24.5615L81.7113 24.0613L81.3998 23.8612L80.7769 23.6611L80.3616 23.6111H79.3753L77.9217 23.7111L76.3643 23.9112L74.7031 24.1614L74.755 23.8112L75.0146 22.8607L75.378 21.8603L75.5337 21.5601L75.6895 21.4601Z" fill="#FEFEFE"/>
<path d="M54.196 19.6593L54.4037 19.8594L55.1305 21.21L55.8572 22.4106L56.4802 23.4111L57.1551 24.4616L58.9201 27.3629L59.3873 28.2133L59.4392 28.3634V28.8136L59.2316 29.2638L58.7643 29.664L58.7124 29.564V28.9637L58.2971 28.1633L56.5321 25.262L55.6496 23.8613L55.0786 22.9609L54.2999 21.6602L53.625 20.4097V20.2096L54.196 19.6593Z" fill="#FEFEFE"/>
<path d="M47.0854 1.55066H47.6565L48.4871 1.70073L49.6292 2.10092L50.9789 2.65118L51.8614 3.15142L52.5363 3.65165L53.0554 4.15189L53.3669 4.6021L53.5226 4.95227V5.4525L53.3149 6.10281L52.6401 7.90366L51.5499 11.1052L51.3942 11.6554L50.927 12.1056L50.8751 12.2057H50.7712L50.8231 11.8555L51.9133 8.65402L52.3805 7.3534L52.7439 6.45298L52.8477 5.80267L52.692 5.30243L52.3805 4.85222L51.6537 4.15189L51.1346 3.80172L50.304 3.35151L49.5253 3.00134L48.1756 2.50111L47.4488 2.30101L47.1373 2.25099H46.2029L45.9434 2.30101L46.0472 2.10092L46.4625 1.75075L46.8259 1.60068L47.0854 1.55066Z" fill="#FEFEFE"/>
<path d="M79.9455 9.40442H80.3608L79.7379 11.1552L79.063 12.9561L78.8554 13.4563L79.0111 13.4063L81.2434 13.2562H82.5412L83.2679 13.4063L83.6832 13.6564L84.0466 14.0066L84.4619 14.7069L84.8253 15.5073L85.0849 16.4077L85.3444 17.5082L85.3964 18.0585L85.2406 18.5587L84.8772 18.9589L84.6696 19.059V18.4087L84.41 17.2081L84.0985 16.1576L83.839 15.5573L83.3718 14.7069L83.0603 14.3568L82.7488 14.1567L81.9701 13.9566H80.1013L78.6477 14.0566H78.2324L78.2843 13.8065L78.7515 12.5559L79.4264 10.705L79.8936 9.45444L79.9455 9.40442Z" fill="#FEFEFE"/>
<path d="M61.9831 1.45068L62.5541 1.55073L63.0732 1.80085L63.6443 2.25106L64.0596 2.60123L64.5268 3.10146L64.8902 3.6017L65.4093 4.55215L65.6169 5.10241L65.7208 5.65267V6.25295L65.5131 7.05333L65.1497 7.85371L64.6825 8.60406L64.0596 9.40444L63.6443 9.9547L63.1251 10.555V10.4049L63.8519 9.45447L64.3191 8.75414L64.7344 7.95376L64.994 7.10336V6.20293L64.8382 5.55262L64.5268 4.85229L64.1115 4.15196L63.5923 3.50165L62.9694 2.90137L62.1388 2.35111L61.6197 2.15101H61.1005L60.7891 2.20104L60.9967 1.9009L61.4639 1.60075L61.9831 1.45068Z" fill="#FEFEFE"/>
<path d="M47.0329 24.3616L47.2406 24.4616L47.3963 24.7117L47.3444 25.1119L46.6176 27.6631L46.2023 29.1138L45.8389 30.5645L45.6832 30.8646L45.3198 31.2148L45.1641 31.1648L45.4755 29.8642L46.1504 27.463L46.981 24.6117L47.0329 24.3616Z" fill="#FEFEFE"/>
</svg>
